<?xml version="1.0" encoding="UTF-8"?>
<svg xmlns="http://www.w3.org/2000/svg" xmlns:xlink="http://www.w3.org/1999/xlink" width="750pt" height="530pt" viewBox="0 0 750 530" version="1.1">
<g id="surface1">
<path style=" stroke:none;fill-rule:evenodd;fill:rgb(8.627451%,8.627451%,7.843137%);fill-opacity:1;" d="M 231.703125 311.171875 L 234.335938 311.171875 L 234.335938 311.839844 C 235.976562 310.261719 237.9375 309.472656 240.226562 309.472656 C 242.589844 309.472656 244.609375 310.300781 246.269531 311.960938 C 246.710938 312.410156 247.109375 312.902344 247.441406 313.429688 C 247.769531 312.921875 248.171875 312.429688 248.640625 311.960938 C 250.300781 310.300781 252.3125 309.472656 254.671875 309.472656 C 257.042969 309.472656 259.054688 310.300781 260.714844 311.960938 C 262.292969 313.5625 263.125 315.492188 263.203125 317.730469 L 263.203125 339.9375 L 260.5625 339.9375 L 260.5625 317.730469 L 260.59375 317.730469 C 260.515625 316.210938 259.945312 314.910156 258.863281 313.839844 C 257.691406 312.679688 256.292969 312.109375 254.671875 312.109375 C 253.050781 312.109375 251.660156 312.679688 250.5 313.839844 C 249.339844 314.992188 248.761719 316.421875 248.761719 318.140625 L 248.761719 339.9375 L 246.121094 339.9375 L 246.121094 317.730469 L 246.148438 317.730469 C 246.070312 316.210938 245.488281 314.910156 244.417969 313.839844 C 243.25 312.679688 241.847656 312.109375 240.226562 312.109375 C 238.605469 312.109375 237.21875 312.679688 236.066406 313.839844 C 235.046875 314.832031 234.476562 316.050781 234.335938 317.5 L 234.335938 339.9375 L 231.703125 339.9375 Z M 286.320312 308.5625 C 290.773438 308.5625 294.574219 310.140625 297.703125 313.28125 C 300.84375 316.421875 302.40625 320.21875 302.40625 324.679688 C 302.40625 329.109375 300.84375 332.898438 297.703125 336.039062 C 294.574219 339.1875 290.773438 340.757812 286.320312 340.757812 C 281.890625 340.757812 278.097656 339.1875 274.949219 336.039062 C 271.808594 332.898438 270.234375 329.109375 270.234375 324.679688 C 270.234375 320.21875 271.808594 316.421875 274.949219 313.28125 C 278.097656 310.140625 281.890625 308.5625 286.320312 308.5625 Z M 286.320312 311.382812 C 282.648438 311.382812 279.507812 312.671875 276.917969 315.269531 C 274.316406 317.871094 273.015625 321 273.015625 324.679688 C 273.015625 328.347656 274.316406 331.480469 276.917969 334.070312 C 279.507812 336.648438 282.648438 337.949219 286.320312 337.949219 C 289.992188 337.949219 293.132812 336.648438 295.734375 334.070312 C 298.324219 331.480469 299.625 328.347656 299.625 324.679688 C 299.625 321 298.324219 317.871094 295.734375 315.269531 C 293.132812 312.671875 289.992188 311.382812 286.320312 311.382812 Z M 292.742188 299.300781 L 285.5625 304.78125 L 283.101562 304.78125 L 287.871094 299.300781 Z M 320.640625 335.140625 L 331.714844 311.171875 L 334.765625 311.171875 L 320.640625 340.726562 L 306.515625 311.171875 L 309.558594 311.171875 Z M 345.507812 334.550781 C 347.988281 336.808594 350.941406 337.949219 354.363281 337.949219 C 358.03125 337.949219 361.171875 336.648438 363.773438 334.050781 C 364.105469 333.71875 364.414062 333.378906 364.703125 333.027344 L 367.496094 334.019531 C 366.984375 334.71875 366.40625 335.398438 365.765625 336.039062 C 362.613281 339.1875 358.8125 340.757812 354.363281 340.757812 C 349.929688 340.757812 346.140625 339.1875 342.988281 336.039062 C 339.847656 332.898438 338.277344 329.097656 338.277344 324.648438 C 338.277344 320.210938 339.847656 316.421875 342.988281 313.28125 C 346.140625 310.140625 349.929688 308.5625 354.363281 308.5625 C 358.171875 308.5625 361.503906 309.710938 364.355469 311.992188 C 364.824219 312.382812 365.292969 312.8125 365.765625 313.28125 C 365.933594 313.460938 366.105469 313.632812 366.265625 313.8125 L 364.265625 315.800781 Z M 362.332031 314.011719 C 360.042969 312.25 357.390625 311.382812 354.363281 311.382812 C 350.710938 311.382812 347.578125 312.671875 344.988281 315.261719 C 342.386719 317.839844 341.085938 320.96875 341.085938 324.648438 C 341.085938 327.667969 341.96875 330.328125 343.726562 332.621094 Z M 377.75 311.171875 L 377.75 339.9375 L 375.109375 339.9375 L 375.109375 311.171875 Z M 376.429688 300.972656 C 377.148438 300.972656 377.769531 301.234375 378.289062 301.742188 C 378.808594 302.242188 379.070312 302.863281 379.070312 303.582031 C 379.070312 304.320312 378.808594 304.953125 378.289062 305.460938 C 377.769531 305.972656 377.148438 306.222656 376.429688 306.222656 C 375.707031 306.222656 375.085938 305.972656 374.566406 305.460938 C 374.046875 304.953125 373.789062 304.320312 373.789062 303.582031 C 373.789062 302.863281 374.046875 302.242188 374.566406 301.742188 C 375.085938 301.234375 375.707031 300.972656 376.429688 300.972656 Z M 395.035156 325.148438 C 392.792969 323.929688 391.242188 322.898438 390.382812 322.039062 C 389.03125 320.691406 388.363281 319.070312 388.363281 317.179688 C 388.363281 315.261719 389.03125 313.632812 390.382812 312.269531 C 391.722656 310.910156 393.351562 310.230469 395.242188 310.230469 C 397.152344 310.230469 398.746094 310.863281 399.996094 312.109375 C 401.207031 313.339844 401.804688 314.730469 401.804688 316.300781 L 401.804688 316.441406 L 399.523438 317.351562 C 399.324219 315.871094 398.863281 314.75 398.132812 314.011719 C 397.394531 313.269531 396.433594 312.902344 395.242188 312.902344 C 394.074219 312.902344 393.0625 313.3125 392.222656 314.140625 C 391.382812 314.972656 390.960938 315.980469 390.960938 317.179688 C 390.960938 318.351562 391.382812 319.351562 392.222656 320.191406 C 392.710938 320.679688 393.753906 321.421875 395.332031 322.421875 C 397.835938 323.789062 399.613281 325 400.664062 326.050781 C 402.324219 327.730469 403.15625 329.730469 403.15625 332.058594 C 403.15625 334.4375 402.324219 336.46875 400.664062 338.136719 C 399.003906 339.808594 396.996094 340.636719 394.632812 340.636719 C 392.261719 340.636719 390.25 339.808594 388.589844 338.136719 C 386.929688 336.46875 386.101562 334.640625 386.101562 332.648438 L 388.710938 331.96875 C 388.710938 333.6875 389.292969 335.128906 390.453125 336.277344 C 391.613281 337.429688 393.003906 338.007812 394.632812 338.007812 C 396.253906 338.007812 397.644531 337.429688 398.804688 336.277344 C 399.964844 335.128906 400.546875 333.71875 400.546875 332.058594 C 400.546875 330.4375 399.976562 329.050781 398.816406 327.898438 C 398.195312 327.269531 396.933594 326.359375 395.035156 325.148438 Z M 431.382812 311.171875 L 434.015625 311.171875 L 434.015625 315.210938 C 434.503906 314.550781 435.066406 313.902344 435.683594 313.28125 C 438.835938 310.152344 442.628906 308.589844 447.058594 308.589844 C 451.511719 308.589844 455.3125 310.160156 458.441406 313.292969 C 461.582031 316.429688 463.144531 320.21875 463.144531 324.679688 C 463.144531 329.109375 461.582031 332.898438 458.441406 336.039062 C 455.3125 339.1875 451.511719 340.757812 447.058594 340.757812 C 442.628906 340.757812 438.835938 339.1875 435.683594 336.039062 C 435.066406 335.417969 434.503906 334.769531 434.015625 334.109375 L 434.015625 350.925781 L 431.382812 350.925781 Z M 434.015625 321.921875 L 434.015625 327.429688 C 434.523438 329.949219 435.734375 332.167969 437.644531 334.078125 C 440.246094 336.679688 443.386719 337.976562 447.058594 337.976562 C 450.730469 337.976562 453.859375 336.679688 456.460938 334.078125 C 459.0625 331.480469 460.363281 328.347656 460.363281 324.679688 C 460.363281 321 459.0625 317.871094 456.460938 315.269531 C 453.859375 312.671875 450.730469 311.382812 447.058594 311.382812 C 443.386719 311.382812 440.246094 312.671875 437.644531 315.269531 C 435.734375 317.191406 434.523438 319.402344 434.015625 321.921875 Z M 473.105469 293.0625 L 473.105469 339.9375 L 470.476562 339.9375 L 470.476562 293.0625 Z M 512.96875 339.9375 L 510.328125 339.9375 L 510.328125 334.078125 C 509.828125 334.757812 509.265625 335.417969 508.65625 336.039062 C 505.515625 339.1875 501.714844 340.757812 497.265625 340.757812 C 492.824219 340.757812 489.03125 339.1875 485.890625 336.039062 C 482.738281 332.898438 481.167969 329.109375 481.167969 324.679688 C 481.167969 320.21875 482.738281 316.421875 485.890625 313.28125 C 489.03125 310.140625 492.824219 308.5625 497.265625 308.5625 C 501.714844 308.5625 505.515625 310.132812 508.65625 313.28125 C 509.265625 313.902344 509.828125 314.5625 510.328125 315.242188 L 510.328125 311.171875 L 512.96875 311.171875 Z M 510.328125 327.28125 L 510.328125 322.070312 C 509.835938 319.492188 508.617188 317.21875 506.667969 315.269531 C 504.066406 312.671875 500.933594 311.382812 497.265625 311.382812 C 493.582031 311.382812 490.453125 312.671875 487.851562 315.269531 C 485.25 317.871094 483.960938 321 483.960938 324.679688 C 483.960938 328.347656 485.25 331.480469 487.851562 334.070312 C 490.453125 336.648438 493.582031 337.949219 497.265625 337.949219 C 500.933594 337.949219 504.066406 336.648438 506.667969 334.050781 C 508.617188 332.097656 509.835938 329.839844 510.328125 327.28125 Z M 524.390625 317.589844 L 524.390625 339.9375 L 521.761719 339.9375 L 521.761719 311.171875 L 524.390625 311.171875 L 524.390625 313.019531 C 526.792969 310.632812 529.59375 309.441406 532.773438 309.441406 C 536.175781 309.441406 538.9375 310.511719 541.066406 312.640625 C 543.199219 314.761719 544.289062 317.449219 544.347656 320.691406 L 544.347656 339.9375 L 541.714844 339.9375 L 541.714844 320.929688 C 541.714844 318.480469 540.828125 316.402344 539.054688 314.671875 C 537.296875 312.941406 535.195312 312.082031 532.773438 312.082031 C 530.351562 312.082031 528.261719 312.929688 526.503906 314.632812 C 525.542969 315.582031 524.84375 316.570312 524.390625 317.589844 Z M 558.621094 334.550781 C 561.101562 336.808594 564.054688 337.949219 567.472656 337.949219 C 571.144531 337.949219 574.285156 336.648438 576.886719 334.050781 C 577.21875 333.71875 577.527344 333.378906 577.816406 333.027344 L 580.609375 334.019531 C 580.097656 334.71875 579.519531 335.398438 578.878906 336.039062 C 575.726562 339.1875 571.925781 340.757812 567.472656 340.757812 C 563.042969 340.757812 559.253906 339.1875 556.101562 336.039062 C 552.960938 332.898438 551.390625 329.097656 551.390625 324.648438 C 551.390625 320.210938 552.960938 316.421875 556.101562 313.28125 C 559.253906 310.140625 563.042969 308.5625 567.472656 308.5625 C 571.285156 308.5625 574.617188 309.710938 577.46875 311.992188 C 577.9375 312.382812 578.40625 312.8125 578.878906 313.28125 C 579.046875 313.460938 579.21875 313.632812 579.378906 313.8125 L 577.378906 315.800781 Z M 575.445312 314.011719 C 573.15625 312.25 570.503906 311.382812 567.472656 311.382812 C 563.824219 311.382812 560.691406 312.671875 558.101562 315.261719 C 555.5 317.839844 554.199219 320.96875 554.199219 324.648438 C 554.199219 327.667969 555.082031 330.328125 556.839844 332.621094 Z M 584.679688 343.976562 C 587.039062 343.707031 588.21875 342.378906 588.21875 340 L 588.21875 311.171875 L 590.859375 311.171875 L 590.859375 339.9375 C 590.859375 344.058594 588.800781 346.289062 584.679688 346.617188 Z M 589.539062 300.972656 C 590.261719 300.972656 590.882812 301.234375 591.402344 301.742188 C 591.921875 302.242188 592.183594 302.863281 592.183594 303.582031 C 592.183594 304.320312 591.921875 304.953125 591.402344 305.460938 C 590.882812 305.972656 590.261719 306.222656 589.539062 306.222656 C 588.820312 306.222656 588.199219 305.972656 587.679688 305.460938 C 587.160156 304.953125 586.898438 304.320312 586.898438 303.582031 C 586.898438 302.863281 587.160156 302.242188 587.679688 301.742188 C 588.199219 301.234375 588.820312 300.972656 589.539062 300.972656 Z M 632.035156 339.9375 L 629.394531 339.9375 L 629.394531 334.078125 C 628.890625 334.757812 628.332031 335.417969 627.722656 336.039062 C 624.582031 339.1875 620.78125 340.757812 616.328125 340.757812 C 611.886719 340.757812 608.097656 339.1875 604.957031 336.039062 C 601.804688 332.898438 600.234375 329.109375 600.234375 324.679688 C 600.234375 320.21875 601.804688 316.421875 604.957031 313.28125 C 608.097656 310.140625 611.886719 308.5625 616.328125 308.5625 C 620.78125 308.5625 624.582031 310.132812 627.722656 313.28125 C 628.332031 313.902344 628.890625 314.5625 629.394531 315.242188 L 629.394531 311.171875 L 632.035156 311.171875 Z M 629.394531 327.28125 L 629.394531 322.070312 C 628.902344 319.492188 627.683594 317.21875 625.730469 315.269531 C 623.128906 312.671875 620 311.382812 616.328125 311.382812 C 612.648438 311.382812 609.515625 312.671875 606.914062 315.269531 C 604.316406 317.871094 603.023438 321 603.023438 324.679688 C 603.023438 328.347656 604.316406 331.480469 606.914062 334.070312 C 609.515625 336.648438 612.648438 337.949219 616.328125 337.949219 C 620 337.949219 623.128906 336.648438 625.730469 334.050781 C 627.683594 332.097656 628.902344 329.839844 629.394531 327.28125 Z M 671.886719 339.9375 L 669.246094 339.9375 L 669.246094 334.078125 C 668.746094 334.757812 668.183594 335.417969 667.574219 336.039062 C 664.433594 339.1875 660.632812 340.757812 656.179688 340.757812 C 651.738281 340.757812 647.949219 339.1875 644.808594 336.039062 C 641.65625 332.898438 640.085938 329.109375 640.085938 324.679688 C 640.085938 320.21875 641.65625 316.421875 644.808594 313.28125 C 647.949219 310.140625 651.738281 308.5625 656.179688 308.5625 C 660.632812 308.5625 664.433594 310.132812 667.574219 313.28125 C 668.183594 313.902344 668.746094 314.5625 669.246094 315.242188 L 669.246094 293.0625 L 671.886719 293.0625 Z M 669.246094 327.28125 L 669.246094 322.070312 C 668.753906 319.492188 667.535156 317.21875 665.582031 315.269531 C 662.980469 312.671875 659.851562 311.382812 656.179688 311.382812 C 652.5 311.382812 649.367188 312.671875 646.769531 315.269531 C 644.167969 317.871094 642.875 321 642.875 324.679688 C 642.875 328.347656 644.167969 331.480469 646.769531 334.070312 C 649.367188 336.648438 652.5 337.949219 656.179688 337.949219 C 659.851562 337.949219 662.980469 336.648438 665.582031 334.050781 C 667.535156 332.097656 668.753906 329.839844 669.246094 327.28125 Z M 695.003906 308.5625 C 699.453125 308.5625 703.253906 310.140625 706.386719 313.28125 C 709.527344 316.421875 711.085938 320.21875 711.085938 324.679688 C 711.085938 329.109375 709.527344 332.898438 706.386719 336.039062 C 703.253906 339.1875 699.453125 340.757812 695.003906 340.757812 C 690.570312 340.757812 686.78125 339.1875 683.628906 336.039062 C 680.488281 332.898438 678.917969 329.109375 678.917969 324.679688 C 678.917969 320.21875 680.488281 316.421875 683.628906 313.28125 C 686.78125 310.140625 690.570312 308.5625 695.003906 308.5625 Z M 695.003906 311.382812 C 691.332031 311.382812 688.191406 312.671875 685.597656 315.269531 C 683 317.871094 681.699219 321 681.699219 324.679688 C 681.699219 328.347656 683 331.480469 685.597656 334.070312 C 688.191406 336.648438 691.332031 337.949219 695.003906 337.949219 C 698.671875 337.949219 701.8125 336.648438 704.414062 334.070312 C 707.003906 331.480469 708.304688 328.347656 708.304688 324.679688 C 708.304688 321 707.003906 317.871094 704.414062 315.269531 C 701.8125 312.671875 698.671875 311.382812 695.003906 311.382812 Z M 726.03125 325.148438 C 723.789062 323.929688 722.242188 322.898438 721.378906 322.039062 C 720.03125 320.691406 719.359375 319.070312 719.359375 317.179688 C 719.359375 315.261719 720.03125 313.632812 721.378906 312.269531 C 722.71875 310.910156 724.351562 310.230469 726.242188 310.230469 C 728.152344 310.230469 729.742188 310.863281 730.992188 312.109375 C 732.203125 313.339844 732.804688 314.730469 732.804688 316.300781 L 732.804688 316.441406 L 730.523438 317.351562 C 730.324219 315.871094 729.863281 314.75 729.132812 314.011719 C 728.390625 313.269531 727.429688 312.902344 726.242188 312.902344 C 725.070312 312.902344 724.0625 313.3125 723.21875 314.140625 C 722.378906 314.972656 721.960938 315.980469 721.960938 317.179688 C 721.960938 318.351562 722.378906 319.351562 723.21875 320.191406 C 723.710938 320.679688 724.75 321.421875 726.332031 322.421875 C 728.832031 323.789062 730.613281 325 731.664062 326.050781 C 733.324219 327.730469 734.152344 329.730469 734.152344 332.058594 C 734.152344 334.4375 733.324219 336.46875 731.664062 338.136719 C 730.003906 339.808594 727.992188 340.636719 725.632812 340.636719 C 723.261719 340.636719 721.25 339.808594 719.589844 338.136719 C 717.929688 336.46875 717.097656 334.640625 717.097656 332.648438 L 719.710938 331.96875 C 719.710938 333.6875 720.289062 335.128906 721.449219 336.277344 C 722.609375 337.429688 724 338.007812 725.632812 338.007812 C 727.25 338.007812 728.640625 337.429688 729.800781 336.277344 C 730.960938 335.128906 731.542969 333.71875 731.542969 332.058594 C 731.542969 330.4375 730.972656 329.050781 729.8125 327.898438 C 729.191406 327.269531 727.933594 326.359375 726.03125 325.148438 Z M 726.03125 325.148438 "/>
<path style=" stroke:none;fill-rule:evenodd;fill:rgb(8.627451%,8.627451%,7.843137%);fill-opacity:1;" d="M 275.382812 206.542969 L 256.175781 230.191406 L 282.871094 277.273438 L 265.894531 277.273438 L 246.617188 242.015625 L 246.007812 242.765625 L 246.007812 277.273438 L 231.710938 277.273438 L 231.710938 180.011719 L 246.007812 180.011719 L 246.007812 220.03125 L 257.019531 206.542969 Z M 355.539062 245.25 L 355.539062 234.789062 C 354.71875 230.355469 352.511719 226.320312 348.941406 222.707031 C 344.105469 217.945312 338.328125 215.550781 331.589844 215.550781 C 324.804688 215.550781 319.03125 217.945312 314.214844 222.707031 C 309.425781 227.46875 307.03125 233.238281 307.03125 240.019531 C 307.03125 246.753906 309.425781 252.523438 314.214844 257.308594 C 319.03125 262.09375 324.804688 264.488281 331.589844 264.488281 C 338.328125 264.488281 344.105469 262.09375 348.941406 257.332031 C 352.511719 253.71875 354.71875 249.683594 355.539062 245.25 Z M 355.539062 211.492188 L 355.539062 206.542969 L 369.839844 206.542969 L 369.839844 277.34375 L 355.539062 277.34375 L 355.539062 268.476562 C 348.660156 275.585938 340.679688 279.125 331.589844 279.125 C 320.765625 279.125 311.539062 275.328125 303.910156 267.679688 C 296.277344 260.054688 292.449219 250.835938 292.449219 240.019531 C 292.449219 229.207031 296.277344 219.984375 303.910156 212.363281 C 311.539062 204.738281 320.765625 200.914062 331.589844 200.914062 C 340.679688 200.914062 348.660156 204.433594 355.539062 211.492188 Z M 404.847656 225.523438 L 404.847656 277.273438 L 390.546875 277.273438 L 390.546875 206.542969 L 404.847656 206.542969 L 404.847656 214.800781 C 407.828125 206.730469 413.816406 202.695312 422.808594 202.695312 C 430.464844 202.695312 436.542969 205.417969 441.054688 210.835938 C 445.585938 216.277344 447.910156 223.082031 448.050781 231.292969 L 448.050781 277.273438 L 433.796875 277.273438 L 433.796875 231.832031 C 433.796875 227.773438 432.320312 224.277344 429.335938 221.371094 C 426.355469 218.460938 422.785156 217.007812 418.675781 217.007812 C 414.589844 217.007812 411.070312 218.414062 408.085938 221.253906 C 406.421875 222.964844 405.339844 224.371094 404.847656 225.523438 Z M 490.898438 261.25 C 493.296875 263.363281 497.613281 264.417969 503.90625 264.417969 C 510.691406 264.417969 516.492188 262.046875 521.304688 257.261719 C 521.894531 256.628906 523.113281 255.222656 524.945312 253.015625 L 539.199219 258.105469 C 535.699219 262.917969 533.1875 266.082031 531.613281 267.65625 C 523.960938 275.300781 514.730469 279.125 503.90625 279.125 C 493.132812 279.125 483.902344 275.300781 476.25 267.65625 C 468.59375 260.007812 464.765625 250.765625 464.765625 239.949219 C 464.765625 229.136719 468.59375 219.914062 476.25 212.269531 C 483.902344 204.597656 493.132812 200.773438 503.90625 200.773438 C 513.160156 200.773438 521.28125 203.5625 528.257812 209.171875 C 529.40625 210.132812 530.535156 211.164062 531.613281 212.246094 C 532.082031 212.714844 533.398438 214.167969 535.535156 216.585938 L 528.398438 223.808594 Z M 514.707031 217.265625 C 513.089844 216.042969 509.496094 215.410156 503.90625 215.410156 C 497.167969 215.410156 491.394531 217.804688 486.601562 222.589844 C 481.8125 227.398438 479.417969 233.167969 479.417969 239.949219 C 479.417969 245.484375 480.03125 249.097656 481.273438 250.742188 Z M 564.296875 206.542969 L 564.296875 180.011719 L 578.527344 180.011719 L 578.527344 206.542969 L 591.25 206.542969 L 591.25 220.785156 L 578.527344 220.785156 L 578.527344 277.273438 L 564.296875 277.273438 L 564.296875 220.785156 L 551.570312 220.785156 L 551.570312 206.542969 Z M 616.445312 206.542969 L 616.445312 180.011719 L 630.675781 180.011719 L 630.675781 206.542969 L 643.398438 206.542969 L 643.398438 220.785156 L 630.675781 220.785156 L 630.675781 277.273438 L 616.445312 277.273438 L 616.445312 220.785156 L 603.71875 220.785156 L 603.71875 206.542969 Z M 695.007812 200.773438 C 705.832031 200.773438 715.058594 204.597656 722.691406 212.269531 C 730.320312 219.914062 734.148438 229.136719 734.148438 239.949219 C 734.148438 250.765625 730.320312 260.007812 722.691406 267.65625 C 715.058594 275.300781 705.832031 279.125 695.007812 279.125 C 684.230469 279.125 675.003906 275.300781 667.347656 267.65625 C 659.695312 260.007812 655.867188 250.765625 655.867188 239.949219 C 655.867188 229.136719 659.695312 219.914062 667.347656 212.269531 C 675.003906 204.597656 684.230469 200.773438 695.007812 200.773438 Z M 695.007812 215.410156 C 688.222656 215.410156 682.421875 217.828125 677.632812 222.636719 C 672.84375 227.445312 670.449219 233.21875 670.449219 239.949219 C 670.449219 246.730469 672.84375 252.5 677.632812 257.261719 C 682.421875 262.046875 688.222656 264.417969 695.007812 264.417969 C 701.792969 264.417969 707.570312 262.046875 712.359375 257.261719 C 717.171875 252.5 719.566406 246.730469 719.566406 239.949219 C 719.566406 233.21875 717.171875 227.445312 712.359375 222.636719 C 707.570312 217.828125 701.792969 215.410156 695.007812 215.410156 Z M 695.007812 215.410156 "/>
<path style=" stroke:none;fill-rule:evenodd;fill:rgb(50.196078%,0%,0%);fill-opacity:1;" d="M 108.847656 279.972656 C 110.128906 283.65625 134.039062 307.203125 136.816406 310.238281 C 145.734375 319.976562 155.691406 329.566406 164.25 339.644531 L 200.003906 339.417969 L 136.519531 272.164062 C 134.015625 269.269531 130.699219 265.238281 127.898438 262.753906 C 123.246094 264.910156 113.863281 276.03125 108.847656 279.972656 Z M 108.847656 279.972656 "/>
<path style=" stroke:none;fill-rule:evenodd;fill:rgb(50.196078%,0%,0%);fill-opacity:1;" d="M 101.851562 287.066406 C 97.785156 291.320312 88.710938 297.582031 86.9375 302.542969 C 90.125 307.972656 99.195312 315.320312 103.722656 320.910156 C 108.9375 327.34375 115.386719 333.125 120.0625 339.886719 L 151.238281 339.96875 C 149.875 336.597656 103.035156 287.917969 101.851562 287.066406 Z M 101.851562 287.066406 "/>
<path style=" stroke:none;fill-rule:evenodd;fill:rgb(8.627451%,8.627451%,7.843137%);fill-opacity:1;" d="M 107.582031 339.433594 C 105.070312 335.023438 90.199219 320.429688 84.328125 313.140625 C 82.960938 311.4375 72.195312 303.542969 80.042969 294.605469 C 82.628906 291.664062 87.449219 287.847656 90.53125 285.089844 C 93.816406 282.152344 96.882812 278.636719 100.195312 275.589844 C 108.414062 268.019531 198.777344 182.835938 200.359375 180.035156 L 168.191406 180.371094 C 155.953125 193.628906 144.070312 205.984375 130.707031 218.113281 C 117.902344 229.734375 105.472656 242.476562 91.941406 253.714844 C 72.066406 270.21875 40.046875 295.378906 61.363281 321.695312 C 65.421875 326.710938 74.710938 335.355469 80.21875 339.429688 Z M 107.582031 339.433594 "/>
<path style=" stroke:none;fill-rule:evenodd;fill:rgb(8.627451%,8.627451%,7.843137%);fill-opacity:1;" d="M 43.625 301.957031 C 45.988281 299.800781 44.488281 303.984375 45.804688 298.613281 C 47.542969 291.515625 46.167969 290.300781 52.777344 280.128906 C 60.554688 268.164062 85.539062 245.605469 96.210938 236.363281 C 101.5 231.78125 154.292969 182.175781 155.105469 179.992188 L 125.878906 179.988281 L 97.738281 206.710938 C 95.175781 209.019531 92.648438 211.117188 90.066406 213.4375 C 87.503906 215.738281 85.902344 218.097656 83.402344 220.378906 L 69.476562 233.648438 C 64.605469 238.105469 59.421875 242.34375 54.683594 246.882812 C 49.332031 252.015625 46.9375 256.246094 42.203125 261.578125 C 37.589844 266.769531 34.421875 275.855469 35.203125 282.863281 C 36.203125 291.824219 40.679688 294.871094 43.625 301.957031 Z M 43.625 301.957031 "/>
<path style=" stroke:none;fill-rule:evenodd;fill:rgb(8.627451%,8.627451%,7.843137%);fill-opacity:1;" d="M 25.714844 280.308594 C 27.679688 267.121094 31.738281 257.691406 41.167969 248.5625 C 49.089844 240.894531 56.03125 233.0625 64.519531 225.507812 C 72.179688 218.683594 81.988281 210.199219 88.851562 202.703125 C 92.558594 198.652344 96.832031 196.039062 100.796875 191.433594 C 104.503906 187.121094 110.753906 184.542969 112.996094 179.316406 L 84.25 179.546875 C 79.015625 186.078125 67.210938 195.242188 60.496094 201.488281 C 52.6875 208.761719 44.34375 215.007812 36.878906 222.632812 C 29.757812 229.90625 21.011719 237.003906 17.101562 247.664062 C 13.414062 257.730469 17.582031 274.230469 25.714844 280.308594 Z M 25.714844 280.308594 "/>
</g>
</svg>
