<?xml version="1.0" encoding="UTF-8" standalone="no"?>
<svg
   xmlns:dc="http://purl.org/dc/elements/1.1/"
   xmlns:cc="http://creativecommons.org/ns#"
   xmlns:rdf="http://www.w3.org/1999/02/22-rdf-syntax-ns#"
   xmlns:svg="http://www.w3.org/2000/svg"
   xmlns="http://www.w3.org/2000/svg"
   viewBox="0 0 841.88977 595.27557"
   id="svg2"
   height="595.27557"
   width="841.88977"
   version="1.1">
  <metadata
     id="metadata28">
    <rdf:RDF>
      <cc:Work
         rdf:about="">
        <dc:format>image/svg+xml</dc:format>
        <dc:type
           rdf:resource="http://purl.org/dc/dcmitype/StillImage" />
      </cc:Work>
    </rdf:RDF>
  </metadata>
  <defs
     id="defs26" />
  <g
     id="g4">
    <path
       id="path6"
       style="fill:#161614;fill-rule:evenodd"
       d="m 260.1275,349.3338 2.9537,0 0,0.7523 c 1.8417,-1.7736 4.0428,-2.6606 6.6144,-2.6606 2.6504,0 4.9186,0.9318 6.783,2.7953 0.4941,0.5051 0.9431,1.055 1.3138,1.65 0.3705,-0.5726 0.8198,-1.1225 1.3476,-1.65 1.8644,-1.8635 4.1213,-2.7953 6.7717,-2.7953 2.6615,0 4.9187,0.9318 6.783,2.7953 1.7742,1.796 2.7063,3.9625 2.7961,6.4768 l 0,24.9313 -2.9644,0 0,-24.9313 0.0334,0 c -0.0896,-1.7061 -0.7299,-3.1654 -1.9426,-4.3665 -1.3141,-1.3022 -2.8862,-1.942 -4.7055,-1.942 -1.8193,0 -3.3803,0.6398 -4.6828,1.942 -1.3028,1.2909 -1.9542,2.8959 -1.9542,4.8269 l 0,24.4709 -2.9645,0 0,-24.9313 0.0337,0 c -0.0898,-1.7061 -0.7412,-3.1654 -1.9428,-4.3665 -1.3139,-1.3022 -2.8863,-1.942 -4.7055,-1.942 -1.8193,0 -3.3801,0.6398 -4.6715,1.942 -1.1455,1.1112 -1.7859,2.4806 -1.9429,4.1083 l 0,25.1895 -2.9537,0 0,-32.2951 z m 61.3159,-2.9296 c 4.9975,0 9.2648,1.7736 12.7797,5.2982 3.5261,3.5246 5.2782,7.7902 5.2782,12.7967 0,4.9729 -1.7521,9.2271 -5.2782,12.752 -3.5149,3.5359 -7.7822,5.2982 -12.7797,5.2982 -4.9748,0 -9.2313,-1.7623 -12.7686,-5.2982 -3.526,-3.5249 -5.2895,-7.7791 -5.2895,-12.752 0,-5.0065 1.7635,-9.2721 5.2895,-12.7967 3.5373,-3.5246 7.7938,-5.2982 12.7686,-5.2982 z m 0,3.1654 c -4.1215,0 -7.6476,1.448 -10.5565,4.3665 -2.9197,2.9186 -4.3795,6.4321 -4.3795,10.563 0,4.1196 1.4598,7.6332 4.3795,10.5407 2.9089,2.8961 6.435,4.3554 10.5565,4.3554 4.1213,0 7.6473,-1.4593 10.5673,-4.3554 2.9086,-2.9075 4.3685,-6.4211 4.3685,-10.5407 0,-4.1309 -1.4599,-7.6444 -4.3685,-10.563 -2.92,-2.9185 -6.446,-4.3665 -10.5673,-4.3665 z m 7.2097,-13.5601 -8.0632,6.1515 -2.7626,0 5.3569,-6.1515 5.4689,0 z m 31.3205,40.2313 12.4314,-26.907 3.4251,0 -15.8565,33.1818 -15.857,-33.1818 3.4141,0 12.4429,26.907 z m 27.9176,-0.6622 c 2.7851,2.5368 6.0979,3.8166 9.9388,3.8166 4.1213,0 7.6476,-1.4593 10.5673,-4.3778 0.3705,-0.3705 0.7189,-0.7523 1.0443,-1.1452 l 3.1334,1.1115 c -0.5729,0.7857 -1.2243,1.5491 -1.9428,2.2674 -3.5374,3.5359 -7.8047,5.2982 -12.8022,5.2982 -4.9748,0 -9.2313,-1.7623 -12.7686,-5.2982 -3.526,-3.5249 -5.2895,-7.7905 -5.2895,-12.7857 0,-4.9839 1.7635,-9.2384 5.2895,-12.763 3.5373,-3.5246 7.7938,-5.2982 12.7686,-5.2982 4.2784,0 8.0181,1.2909 11.2187,3.8503 0.5278,0.4377 1.0554,0.9204 1.5835,1.4479 0.191,0.2021 0.3818,0.3929 0.5615,0.595 l -2.2459,2.2337 -21.0566,21.0475 z m 18.889,-23.0567 c -2.5716,-1.9757 -5.5477,-2.9523 -8.9502,-2.9523 -4.0991,0 -7.6138,1.448 -10.5227,4.3555 -2.9197,2.8961 -4.3796,6.4094 -4.3796,10.5403 0,3.3903 0.9882,6.376 2.9648,8.9467 l 20.8877,-20.8902 z m 17.3052,-3.1881 0,32.2951 -2.9645,0 0,-32.2951 2.9645,0 z m -1.4823,-11.4497 c 0.8085,0 1.505,0.292 2.0889,0.8643 0.5839,0.5612 0.8762,1.2574 0.8762,2.0656 0,0.8305 -0.2923,1.5378 -0.8762,2.1104 -0.5839,0.5723 -1.2804,0.8529 -2.0889,0.8529 -0.8084,0 -1.5046,-0.2806 -2.0888,-0.8529 -0.5839,-0.5726 -0.8756,-1.2799 -0.8756,-2.1104 0,-0.8082 0.2917,-1.5044 0.8756,-2.0656 0.5842,-0.5723 1.2804,-0.8643 2.0888,-0.8643 z m 20.8877,27.1426 c -2.5152,-1.3694 -4.2559,-2.5257 -5.222,-3.4909 -1.5159,-1.5154 -2.2683,-3.3341 -2.2683,-5.4555 0,-2.1552 0.7524,-3.985 2.2683,-5.5117 1.5052,-1.5265 3.3353,-2.2899 5.4581,-2.2899 2.1447,0 3.9305,0.7073 5.3343,2.1104 1.3589,1.3808 2.0327,2.941 2.0327,4.7033 l 0,0.1573 -2.5605,1.0213 c -0.2248,-1.6614 -0.7413,-2.9185 -1.5614,-3.7491 -0.8308,-0.8308 -1.9088,-1.2461 -3.2451,-1.2461 -1.3138,0 -2.4483,0.4604 -3.3913,1.3921 -0.9437,0.9315 -1.4154,2.0653 -1.4154,3.4124 0,1.3132 0.4717,2.4358 1.4154,3.3788 0.5499,0.55 1.7178,1.3805 3.4922,2.5033 2.8075,1.5378 4.8065,2.8959 5.9857,4.0745 1.8643,1.8859 2.7964,4.131 2.7964,6.7465 0,2.6717 -0.9321,4.9504 -2.7964,6.825 -1.8644,1.8745 -4.1213,2.8063 -6.7717,2.8063 -2.6615,0 -4.919,-0.9318 -6.783,-2.8063 -1.8641,-1.8746 -2.7964,-3.9288 -2.7964,-6.1628 l 2.9313,-0.7631 c 0,1.9307 0.6514,3.547 1.9539,4.8379 1.3028,1.2909 2.8636,1.942 4.6942,1.942 1.819,0 3.3803,-0.6511 4.6828,-1.942 1.3028,-1.2909 1.9542,-2.8735 1.9542,-4.737 0,-1.8184 -0.64,-3.3789 -1.9428,-4.6698 -0.6962,-0.707 -2.1116,-1.7286 -4.2452,-3.0869 z m 40.8098,-15.6929 2.9537,0 0,4.5351 c 0.55,-0.7409 1.179,-1.4706 1.8751,-2.1665 3.5377,-3.5135 7.7939,-5.2648 12.7687,-5.2648 4.9975,0 9.2648,1.7626 12.78,5.2762 3.526,3.5246 5.2778,7.7788 5.2778,12.7853 0,4.9729 -1.7518,9.2271 -5.2778,12.752 -3.5152,3.5359 -7.7825,5.2982 -12.78,5.2982 -4.9748,0 -9.231,-1.7623 -12.7687,-5.2982 -0.6961,-0.6959 -1.3251,-1.4256 -1.8751,-2.1665 l 0,18.881 -2.9537,0 0,-44.6318 z m 2.9537,12.0671 0,6.1852 c 0.5726,2.8287 1.9316,5.3209 4.0765,7.4647 2.9197,2.9186 6.4457,4.3779 10.5673,4.3779 4.1216,0 7.6365,-1.4593 10.5562,-4.3779 2.92,-2.9185 4.3798,-6.4321 4.3798,-10.5517 0,-4.1309 -1.4598,-7.6444 -4.3798,-10.563 -2.9197,-2.9185 -6.4346,-4.3665 -10.5562,-4.3665 -4.1216,0 -7.6476,1.448 -10.5673,4.3665 -2.1449,2.1555 -3.5039,4.6361 -4.0765,7.4648 z m 43.8866,-32.396 0,52.624 -2.9534,0 0,-52.624 2.9534,0 z m 44.7517,52.624 -2.9648,0 0,-6.5781 c -0.5615,0.7634 -1.1903,1.5044 -1.8754,2.2003 -3.5266,3.5359 -7.7938,5.2982 -12.791,5.2982 -4.9862,0 -9.2424,-1.7623 -12.7684,-5.2982 -3.5377,-3.5249 -5.3005,-7.7791 -5.3005,-12.752 0,-5.0065 1.7628,-9.2721 5.3005,-12.7967 3.526,-3.5246 7.7822,-5.2982 12.7684,-5.2982 4.9972,0 9.2644,1.7623 12.791,5.2982 0.6851,0.6959 1.3139,1.4369 1.8754,2.2003 l 0,-4.5689 2.9648,0 0,32.2951 z m -2.9648,-14.2112 0,-5.8482 c -0.5502,-2.8961 -1.9202,-5.4445 -4.1105,-7.6334 -2.9197,-2.9185 -6.4344,-4.3665 -10.5559,-4.3665 -4.133,0 -7.6476,1.448 -10.5673,4.3665 -2.9197,2.9186 -4.3688,6.4321 -4.3688,10.563 0,4.1196 1.4491,7.6332 4.3688,10.5407 2.9197,2.8961 6.4343,4.3554 10.5673,4.3554 4.1215,0 7.6362,-1.4593 10.5559,-4.3778 2.1903,-2.1892 3.5603,-4.7259 4.1105,-7.5997 z m 15.7893,-10.8771 0,25.0883 -2.9534,0 0,-32.2951 2.9534,0 0,2.0767 c 2.6952,-2.6828 5.8396,-4.0187 9.4107,-4.0187 3.8183,0 6.918,1.2013 9.3096,3.5923 2.3921,2.3797 3.6161,5.3992 3.6836,9.0363 l 0,21.6085 -2.9537,0 0,-21.3392 c 0,-2.7502 -0.9992,-5.0851 -2.9869,-7.0271 -1.9766,-1.9417 -4.335,-2.9072 -7.0526,-2.9072 -2.7176,0 -5.0647,0.9541 -7.041,2.8624 -1.0783,1.0664 -1.8643,2.1776 -2.3697,3.3228 z m 38.429,19.038 c 2.785,2.5368 6.0979,3.8166 9.9385,3.8166 4.1216,0 7.6476,-1.4593 10.5673,-4.3778 0.3708,-0.3705 0.7189,-0.7523 1.0446,-1.1452 l 3.1331,1.1115 c -0.5726,0.7857 -1.224,1.5491 -1.9429,2.2674 -3.5373,3.5359 -7.8046,5.2982 -12.8021,5.2982 -4.9748,0 -9.231,-1.7623 -12.7686,-5.2982 -3.526,-3.5249 -5.2895,-7.7905 -5.2895,-12.7857 0,-4.9839 1.7635,-9.2384 5.2895,-12.763 3.5376,-3.5246 7.7938,-5.2982 12.7686,-5.2982 4.2786,0 8.0181,1.2909 11.2187,3.8503 0.5278,0.4377 1.0556,0.9204 1.5834,1.4479 0.1911,0.2021 0.3819,0.3929 0.5616,0.595 l -2.2459,2.2337 -21.0563,21.0475 z m 18.8889,-23.0567 c -2.5719,-1.9757 -5.5479,-2.9523 -8.9504,-2.9523 -4.0992,0 -7.6138,1.448 -10.5225,4.3555 -2.9199,2.8961 -4.3798,6.4094 -4.3798,10.5403 0,3.3903 0.9885,6.376 2.9651,8.9467 l 20.8876,-20.8902 z m 10.3649,33.6419 c 2.6504,-0.303 3.9756,-1.7961 3.9756,-4.4674 l 0,-32.3626 2.9648,0 0,32.2951 c 0,4.6247 -2.3134,7.128 -6.9404,7.4985 l 0,-2.9636 z m 5.4578,-48.2797 c 0.8088,0 1.5052,0.292 2.0889,0.8643 0.5839,0.5612 0.8762,1.2574 0.8762,2.0656 0,0.8305 -0.2923,1.5378 -0.8762,2.1104 -0.5837,0.5723 -1.2801,0.8529 -2.0889,0.8529 -0.8084,0 -1.5046,-0.2806 -2.0888,-0.8529 -0.584,-0.5726 -0.8756,-1.2799 -0.8756,-2.1104 0,-0.8082 0.2916,-1.5044 0.8756,-2.0656 0.5842,-0.5723 1.2804,-0.8643 2.0888,-0.8643 z m 47.7054,43.7448 -2.965,0 0,-6.5781 c -0.5616,0.7634 -1.1903,1.5044 -1.8754,2.2003 -3.5263,3.5359 -7.7936,5.2982 -12.7911,5.2982 -4.9858,0 -9.2423,-1.7623 -12.7684,-5.2982 -3.5373,-3.5249 -5.3005,-7.7791 -5.3005,-12.752 0,-5.0065 1.7632,-9.2721 5.3005,-12.7967 3.5261,-3.5246 7.7826,-5.2982 12.7684,-5.2982 4.9975,0 9.2648,1.7623 12.7911,5.2982 0.6851,0.6959 1.3138,1.4369 1.8754,2.2003 l 0,-4.5689 2.965,0 0,32.2951 z m -2.965,-14.2112 0,-5.8482 c -0.5502,-2.8961 -1.9202,-5.4445 -4.1103,-7.6334 -2.9196,-2.9185 -6.4346,-4.3665 -10.5562,-4.3665 -4.1326,0 -7.6473,1.448 -10.5673,4.3665 -2.9196,2.9186 -4.3684,6.4321 -4.3684,10.563 0,4.1196 1.4488,7.6332 4.3684,10.5407 2.92,2.8961 6.4347,4.3554 10.5673,4.3554 4.1216,0 7.6366,-1.4593 10.5562,-4.3778 2.1901,-2.1892 3.5601,-4.7259 4.1103,-7.5997 z m 47.7051,14.2112 -2.9648,0 0,-6.5781 c -0.5615,0.7634 -1.1902,1.5044 -1.8754,2.2003 -3.5263,3.5359 -7.7936,5.2982 -12.791,5.2982 -4.9859,0 -9.2424,-1.7623 -12.7684,-5.2982 -3.5374,-3.5249 -5.3005,-7.7791 -5.3005,-12.752 0,-5.0065 1.7631,-9.2721 5.3005,-12.7967 3.526,-3.5246 7.7825,-5.2982 12.7684,-5.2982 4.9974,0 9.2647,1.7623 12.791,5.2982 0.6852,0.6959 1.3139,1.4369 1.8754,2.2003 l 0,-24.8978 2.9648,0 0,52.624 z m -2.9648,-14.2112 0,-5.8482 c -0.5502,-2.8961 -1.9202,-5.4445 -4.1102,-7.6334 -2.92,-2.9185 -6.4347,-4.3665 -10.5562,-4.3665 -4.1327,0 -7.6473,1.448 -10.5673,4.3665 -2.9197,2.9186 -4.3685,6.4321 -4.3685,10.563 0,4.1196 1.4488,7.6332 4.3685,10.5407 2.92,2.8961 6.4346,4.3554 10.5673,4.3554 4.1215,0 7.6362,-1.4593 10.5562,-4.3778 2.19,-2.1892 3.56,-4.7259 4.1102,-7.5997 z m 28.9174,-21.0135 c 4.9975,0 9.2647,1.7736 12.7797,5.2982 3.526,3.5246 5.2781,7.7902 5.2781,12.7967 0,4.9729 -1.7521,9.2271 -5.2781,12.752 -3.515,3.5359 -7.7822,5.2982 -12.7797,5.2982 -4.9748,0 -9.2313,-1.7623 -12.7687,-5.2982 -3.526,-3.5249 -5.2894,-7.7791 -5.2894,-12.752 0,-5.0065 1.7634,-9.2721 5.2894,-12.7967 3.5374,-3.5246 7.7939,-5.2982 12.7687,-5.2982 z m 0,3.1654 c -4.1216,0 -7.6476,1.448 -10.5565,4.3665 -2.9197,2.9186 -4.3796,6.4321 -4.3796,10.563 0,4.1196 1.4599,7.6332 4.3796,10.5407 2.9089,2.8961 6.4349,4.3554 10.5565,4.3554 4.1213,0 7.6476,-1.4593 10.5673,-4.3554 2.9086,-2.9075 4.3684,-6.4211 4.3684,-10.5407 0,-4.1309 -1.4598,-7.6444 -4.3684,-10.563 -2.9197,-2.9185 -6.446,-4.3665 -10.5673,-4.3665 z m 34.8352,15.4571 c -2.5154,-1.3694 -4.2559,-2.5257 -5.222,-3.4909 -1.5159,-1.5154 -2.2682,-3.3341 -2.2682,-5.4555 0,-2.1552 0.7523,-3.985 2.2682,-5.5117 1.5052,-1.5265 3.3353,-2.2899 5.4581,-2.2899 2.1447,0 3.9303,0.7073 5.334,2.1104 1.3589,1.3808 2.033,2.941 2.033,4.7033 l 0,0.1573 -2.5605,1.0213 c -0.2248,-1.6614 -0.7413,-2.9185 -1.5613,-3.7491 -0.8309,-0.8308 -1.9092,-1.2461 -3.2452,-1.2461 -1.3138,0 -2.4482,0.4604 -3.3916,1.3921 -0.9434,0.9315 -1.4151,2.0653 -1.4151,3.4124 0,1.3132 0.4717,2.4358 1.4151,3.3788 0.5502,0.55 1.7181,1.3805 3.4926,2.5033 2.8074,1.5378 4.8064,2.8959 5.9856,4.0745 1.8641,1.8859 2.7964,4.131 2.7964,6.7465 0,2.6717 -0.9323,4.9504 -2.7964,6.825 -1.8643,1.8745 -4.1216,2.8063 -6.772,2.8063 -2.6611,0 -4.9186,-0.9318 -6.7827,-2.8063 -1.8641,-1.8746 -2.7964,-3.9288 -2.7964,-6.1628 l 2.9313,-0.7631 c 0,1.9307 0.6514,3.547 1.9537,4.8379 1.3028,1.2909 2.8638,1.942 4.6941,1.942 1.8193,0 3.3806,-0.6511 4.6829,-1.942 1.3028,-1.2909 1.9542,-2.8735 1.9542,-4.737 0,-1.8184 -0.6401,-3.3789 -1.9429,-4.6698 -0.6962,-0.707 -2.1112,-1.7286 -4.2449,-3.0869 z" />
    <path
       id="path8"
       style="fill:#161614;fill-rule:evenodd"
       d="m 309.1612,231.8743 -21.562,26.547 29.971,52.8571 -19.0582,0 -21.6414,-39.5836 -0.6854,0.8428 0,38.7408 -16.0529,0 0,-109.1903 16.0529,0 0,44.9297 12.3627,-15.1435 20.6133,0 z m 89.9921,43.4551 0,-11.7462 c -0.9224,-4.9773 -3.4002,-9.5074 -7.407,-13.5632 -5.43,-5.3461 -11.9146,-8.0325 -19.4799,-8.0325 -7.6179,0 -14.1024,2.6864 -19.5061,8.0325 -5.3773,5.3464 -8.066,11.825 -8.066,19.4363 0,7.5586 2.6887,14.0372 8.066,19.41 5.4037,5.3725 11.8882,8.0589 19.5061,8.0589 7.5653,0 14.0499,-2.6864 19.4799,-8.0326 4.0068,-4.0558 6.4846,-8.5858 7.407,-13.5632 z m 0,-37.8981 0,-5.557 16.0534,0 0,79.4832 -16.0534,0 0,-9.9553 c -7.7233,7.9801 -16.6856,11.9568 -26.8869,11.9568 -12.1519,0 -22.5111,-4.2664 -31.078,-12.8523 -8.5668,-8.5592 -12.8636,-18.9093 -12.8636,-31.0504 0,-12.1411 4.2968,-22.4912 12.8636,-31.0504 8.5669,-8.5595 18.9261,-12.8523 31.078,-12.8523 10.2013,0 19.1636,3.9507 26.8869,11.8777 z m 55.3555,15.749 0,58.0981 -16.0529,0 0,-79.4041 16.0529,0 0,9.2704 c 3.3477,-9.0595 10.0692,-13.5896 20.1651,-13.5896 8.5935,0 15.4205,3.0552 20.4814,9.1389 5.0877,6.1098 7.6972,13.7475 7.8554,22.9652 l 0,51.6192 -16.0001,0 0,-51.0134 c 0,-4.5561 -1.6609,-8.4804 -5.0086,-11.7459 -3.3474,-3.2658 -7.3545,-4.8986 -11.9673,-4.8986 -4.5867,0 -8.5405,1.58 -11.8882,4.7667 -1.8717,1.9225 -3.0841,3.5028 -3.6377,4.7931 z m 96.6084,40.1103 c 2.6887,2.3703 7.5387,3.5555 14.6035,3.5555 7.6176,0 14.1287,-2.6601 19.5324,-8.0326 0.6591,-0.7112 2.0296,-2.2912 4.0859,-4.767 l 16.0001,5.7152 c -3.9276,5.3989 -6.7478,8.9544 -8.5141,10.7187 -8.5932,8.5858 -18.9524,12.8786 -31.1043,12.8786 -12.0991,0 -22.4589,-4.2928 -31.0521,-12.8786 -8.5932,-8.5856 -12.8897,-18.9621 -12.8897,-31.1032 0,-12.141 4.2965,-22.4912 12.8897,-31.0768 8.5932,-8.6119 18.953,-12.9047 31.0521,-12.9047 10.3856,0 19.5061,3.134 27.3348,9.4283 1.2915,1.0797 2.5568,2.2386 3.7695,3.4501 0.5273,0.5267 2.0033,2.1597 4.4022,4.8722 l -8.0135,8.1116 -42.0965,42.0327 z m 26.729,-49.3804 c -1.819,-1.3697 -5.8521,-2.0806 -12.1255,-2.0806 -7.5654,0 -14.0499,2.6864 -19.4272,8.0589 -5.3773,5.3988 -8.0663,11.8777 -8.0663,19.4887 0,6.2156 0.6857,10.2714 2.0826,12.1147 l 37.5364,-37.5817 z m 55.6713,-12.0359 0,-29.7862 15.9741,0 0,29.7862 14.2872,0 0,15.9863 -14.2872,0 0,63.4178 -15.9741,0 0,-63.4178 -14.2869,0 0,-15.9863 14.2869,0 z m 58.5451,0 0,-29.7862 15.9741,0 0,29.7862 14.2871,0 0,15.9863 -14.2871,0 0,63.4178 -15.9741,0 0,-63.4178 -14.2869,0 0,-15.9863 14.2869,0 z m 88.1997,-6.4786 c 12.1518,0 22.5113,4.2928 31.0782,12.9047 8.5666,8.5856 12.8633,18.9358 12.8633,31.0768 0,12.1411 -4.2967,22.5176 -12.8633,31.1032 -8.5669,8.5858 -18.9264,12.8786 -31.0782,12.8786 -12.0991,0 -22.4586,-4.2928 -31.0518,-12.8786 -8.5933,-8.5856 -12.89,-18.9621 -12.89,-31.1032 0,-12.141 4.2967,-22.4912 12.89,-31.0768 8.5932,-8.6119 18.9527,-12.9047 31.0518,-12.9047 z m 0,16.4339 c -7.6181,0 -14.1287,2.7124 -19.5063,8.1116 -5.3774,5.3989 -8.066,11.8777 -8.066,19.436 0,7.6113 2.6886,14.0899 8.066,19.4363 5.3776,5.3725 11.8882,8.0326 19.5063,8.0326 7.6178,0 14.1024,-2.6601 19.4797,-8.0326 5.4037,-5.3464 8.0926,-11.825 8.0926,-19.4363 0,-7.5583 -2.6889,-14.0371 -8.0926,-19.436 -5.3773,-5.3992 -11.8619,-8.1116 -19.4797,-8.1116 z" />
    <g
       id="g10">
      <path
         id="path12"
         style="fill:#800000;fill-rule:evenodd"
         d="m 122.201,314.3076 c 1.435,4.1365 28.281,30.5699 31.4004,33.9777 10.0092,10.9334 21.19,21.6978 30.7969,33.0142 l 40.1408,-0.2563 -71.2744,-75.4997 c -2.8102,-3.2512 -6.532,-7.7743 -9.6753,-10.5672 -5.2253,2.4246 -15.7569,14.9078 -21.3884,19.3313 z" />
      <path
         id="path14"
         style="fill:#800000;fill-rule:evenodd"
         d="m 114.3473,322.2726 c -4.5653,4.7755 -14.755,11.8046 -16.7438,17.3745 3.579,6.0952 13.7601,14.346 18.8446,20.6204 5.8532,7.2231 13.0935,13.712 18.3407,21.3031 l 34.9995,0.0911 c -1.5276,-3.7852 -54.1149,-58.4342 -55.441,-59.3891 z" />
    </g>
    <g
       id="g16">
      <path
         id="path18"
         style="fill:#161614;fill-rule:evenodd"
         d="m 120.7778,381.0615 c -2.8201,-4.9483 -19.5148,-21.3356 -26.1033,-29.5186 -1.5386,-1.911 -13.6252,-10.7723 -4.8112,-20.807 2.9005,-3.3024 8.3116,-7.5863 11.7728,-10.6805 3.688,-3.2973 7.1311,-7.2464 10.8486,-10.6687 9.23,-8.4966 110.6739,-104.1288 112.4512,-107.2711 l -36.1151,0.3754 c -13.7387,14.8851 -27.0794,28.7556 -42.0807,42.3717 -14.3733,13.0459 -28.3273,27.3532 -43.5224,39.9692 -22.3117,18.525 -58.2606,46.7716 -34.3289,76.3188 4.5597,5.6295 14.9854,15.3343 21.1717,19.9065 l 30.7173,0.004 z" />
      <path
         id="path20"
         style="fill:#161614;fill-rule:evenodd"
         d="m 48.9772,338.9879 c 2.6534,-2.4177 0.9685,2.2797 2.4462,-3.7506 1.9529,-7.9705 0.4062,-9.3335 7.8293,-20.7538 8.7305,-13.4318 36.7781,-38.757 48.7581,-49.1322 5.941,-5.1452 65.208,-60.8346 66.1209,-63.2864 l -32.8114,-7e-4 -31.594,29.9959 c -2.8756,2.5933 -5.7143,4.9501 -8.6117,7.5536 -2.8769,2.5849 -4.6733,5.2314 -7.4811,7.7916 l -15.6339,14.8994 c -5.4689,5.0038 -11.2905,9.7598 -16.6082,14.8583 -6.0097,5.7618 -8.6972,10.5091 -14.0115,16.4934 -5.1785,5.8311 -8.7352,16.0286 -7.8586,23.8974 1.1207,10.0617 6.1472,13.4814 9.4559,21.4341 z" />
      <path
         id="path22"
         style="fill:#161614;fill-rule:evenodd"
         d="m 28.8679,314.6866 c 2.2084,-14.8054 6.7621,-25.3909 17.3511,-35.6404 8.8922,-8.6068 16.6861,-17.4005 26.2132,-25.8831 8.6018,-7.6583 19.6136,-17.1847 27.3171,-25.5994 4.164,-4.5477 8.9622,-7.4821 13.4107,-12.6529 4.1629,-4.8392 11.1818,-7.7333 13.6967,-13.6008 l -32.2726,0.2586 c -5.8763,7.3309 -19.1294,17.6174 -26.6658,24.6327 -8.7689,8.1629 -18.135,15.1773 -26.5161,23.736 -7.9942,8.1635 -17.8115,16.134 -22.201,28.1018 -4.1436,11.2981 0.5355,29.8226 9.6667,36.6475 z" />
    </g>
  </g>
</svg>
